SplineFontDB: 3.0
FontName: GanCLM-Bold
FullName: Gan CLM Bold
FamilyName: Gan CLM
Weight: Bold
Copyright: Copyright (c) 2004-2022 by Maxim Iorsh (iorsh@users.sourceforge.net). Distributed under the terms of GNU General Public License version 2(http://www.gnu.org/licenses/gpl.html). \nAll rights reserved.
UComments: "2003-9-14: Created."
Version: 1.02
ItalicAngle: 0
UnderlinePosition: -100
UnderlineWidth: 50
Ascent: 800
Descent: 200
InvalidEm: 0
LayerCount: 2
Layer: 0 0 "Back" 1
Layer: 1 0 "Fore" 0
FSType: 0
OS2Version: 0
OS2_WeightWidthSlopeOnly: 0
OS2_UseTypoMetrics: 0
CreationTime: 1163025789
ModificationTime: 1666112505
PfmFamily: 81
TTFWeight: 700
TTFWidth: 5
LineGap: 90
VLineGap: 0
Panose: 0 0 0 0 0 0 0 0 0 0
OS2TypoAscent: 0
OS2TypoAOffset: 1
OS2TypoDescent: 0
OS2TypoDOffset: 1
OS2TypoLinegap: 0
OS2WinAscent: 0
OS2WinAOffset: 1
OS2WinDescent: 0
OS2WinDOffset: 1
HheadAscent: 0
HheadAOffset: 1
HheadDescent: 0
HheadDOffset: 1
OS2Vendor: 'PfEd'
MarkAttachClasses: 1
DEI: 91125
LangName: 1033
Encoding: UnicodeBmp
Compacted: 1
UnicodeInterp: none
NameList: Adobe Glyph List
DisplaySize: -96
AntiAlias: 1
FitToEm: 1
WinInfo: 0 10 5
BeginPrivate: 0
EndPrivate
Grid
-54 600 m 25
 1062 600 l 1049
EndSplineSet
BeginChars: 65539 62

StartChar: .notdef
Encoding: 0 -1 0
AltUni2: 000000.ffffffff.0
Width: 700
Flags: HMW
LayerCount: 2
Fore
SplineSet
150 500 m 1
 150 100 l 1
 550 100 l 1
 550 500 l 1
 150 500 l 1
50 600 m 1
 650 600 l 1
 650 0 l 1
 50 0 l 1
 50 600 l 1
EndSplineSet
Validated: 2097153
EndChar

StartChar: exclam
Encoding: 33 33 2
Width: 320
Flags: HMW
LayerCount: 2
Back
SplineSet
152 190 m 16
 213 190 259 146 259 92 c 0
 259 22 216 -14 161 -14 c 0
 97 -14 52 30 52 96 c 8
 52 149.525 98.4746 190 152 190 c 16
164 730.734 m 16
 242 730.734 270 617.188 270 517.835 c 0
 270 392.676 249.404 243 155 243 c 20
 75 243 50 373.809 50 480.416 c 16
 50 590.092 76.2441 730.734 164 730.734 c 16
EndSplineSet
Fore
SplineSet
152 190 m 16
 213 190 259 146 259 92 c 0
 259 22 216 -14 161 -14 c 0
 97 -14 52 30 52 96 c 8
 52 149.525 98.4746 190 152 190 c 16
164 728 m 0
 242 728 270 617.188 270 517.835 c 0
 270 392.676 249 243 154 243 c 0
 74 243 50 379.33 50 480.416 c 16
 50 590.092 76 728 164 728 c 0
EndSplineSet
Validated: 524289
EndChar

StartChar: quotedbl
Encoding: 34 34 3
Width: 493
Flags: HMW
LayerCount: 2
Fore
SplineSet
376.55 689.9 m 12
 422.086 689.9 463.7 664.7 463.7 612.2 c 4
 463.7 526.101 379.7 440 320.899 440 c 4
 282.05 440 260 456.801 260 497.75 c 4
 260 582.801 292.55 689.9 376.55 689.9 c 12
146.55 689.9 m 8
 192.086 689.9 233.7 664.7 233.7 612.2 c 0
 233.7 526.101 149.7 440 90.8994 440 c 0
 52.0498 440 30 456.801 30 497.75 c 0
 30 582.801 62.5498 689.9 146.55 689.9 c 8
EndSplineSet
Validated: 524289
EndChar

StartChar: percent
Encoding: 37 37 4
Width: 688
Flags: HMW
LayerCount: 2
Back
SplineSet
162 721.281 m 16
 242.521 721.281 303.238 663.2 303.238 591.921 c 0
 303.238 499.521 246.479 452 173.879 452 c 0
 89.3994 452 30 510.081 30 597.2 c 8
 30 667.854 91.3457 721.281 162 721.281 c 16
515.879 249.281 m 16
 596.399 249.281 657.117 191.2 657.117 119.921 c 0
 657.117 27.5215 600.357 -20 527.758 -20 c 0
 443.278 -20 383.879 38.0811 383.879 125.2 c 8
 383.879 195.854 445.225 249.281 515.879 249.281 c 16
459.187 606.871 m 0
 522.022 650.33 589.582 668.481 634.077 616.645 c 24
 679.232 564.038 658.136 501.471 597.374 442.708 c 0
 539.486 386.726 494.161 356.206 430.816 297.943 c 24
 346.341 220.245 310.314 171.534 219.9 92.7041 c 8
 172.533 51.4053 123.702 16.957 59.1924 80.9609 c 0
 18.5371 121.299 33.7949 203.714 84.1875 243.196 c 16
 140.759 287.521 179.047 318.008 232.628 373.271 c 16
 312.705 455.864 379.545 551.789 459.187 606.871 c 0
EndSplineSet
Fore
SplineSet
162 721.281 m 16
 242.521 721.281 303.238 663.2 303.238 591.921 c 0
 303.238 499.521 246.479 452 173.879 452 c 0
 89.3994 452 30 510.081 30 597.2 c 8
 30 667.854 91.3457 721.281 162 721.281 c 16
515.879 249.281 m 16
 596.399 249.281 657.117 191.2 657.117 119.921 c 0
 657.117 27.5215 600.357 -20 527.758 -20 c 0
 443.278 -20 383.879 38.0811 383.879 125.2 c 8
 383.879 195.854 445.225 249.281 515.879 249.281 c 16
454.188 611.871 m 4
 517.021 655.33 592.671 661.817 634.077 616.645 c 0
 675 572 663.136 496.471 602.374 437.708 c 0
 544.486 381.726 488.285 359.296 423 300 c 24
 339.172 223.862 321 174 224.9 87.7041 c 8
 176.776 44.4893 96 35 59.1924 80.9609 c 0
 23.3922 125.664 30.083 204.568 79.1875 248.196 c 20
 151 312 184 321 257 390 c 4
 340.603 469.021 374.545 556.789 454.188 611.871 c 4
EndSplineSet
Validated: 524321
EndChar

StartChar: parenleft
Encoding: 40 40 5
Width: 401
Flags: HMW
LayerCount: 2
Fore
SplineSet
256 -122 m 20
 110 -122 30 122.474 30 314 c 20
 30 594 159 722 263 722 c 4
 341 722 371 678 371 620 c 12
 371 555.857 316 512 280 483 c 12
 218.663 433.59 198.128 376.758 199 298 c 28
 199.871 219.312 231 161 284 115 c 12
 326.891 77.7744 357 45.791 357 -11 c 20
 357 -79 314.528 -122 256 -122 c 20
EndSplineSet
Validated: 524321
EndChar

StartChar: parenright
Encoding: 41 41 6
Width: 401
Flags: HMW
LayerCount: 2
Back
SplineSet
145 722 m 20
 291 722 371 477.526 371 286 c 20
 371 6 220 -122 138 -122 c 12
 80.0645 -122 30 -78 30 -20 c 12
 30 44.1426 85 88 121 117 c 12
 182.337 166.41 202.872 223.242 202 302 c 28
 201.129 380.688 170 439 117 485 c 12
 74.1094 522.226 44 554.209 44 611 c 20
 44 679 86.4717 722 145 722 c 20
EndSplineSet
Fore
SplineSet
145 722 m 20
 291 722 371 477.526 371 286 c 20
 371 6 242 -122 138 -122 c 4
 60 -122 30 -78 30 -20 c 12
 30 44.1426 85 88 121 117 c 12
 182.337 166.41 202.872 223.242 202 302 c 28
 201.129 380.688 170 439 117 485 c 12
 74.1094 522.226 44 554.209 44 611 c 20
 44 679 86.4717 722 145 722 c 20
EndSplineSet
Validated: 524321
EndChar

StartChar: four
Encoding: 52 52 7
Width: 716
Flags: HMW
LayerCount: 2
Back
SplineSet
382 530 m 16
 324.8 530 212 425.5 212 360.6 c 8
 212 337.914 229.101 327.6 259.9 327.6 c 0
 428.2 327.6 434 338.6 434 442 c 0
 434 488.2 421.864 530 382 530 c 16
505 732 m 8
 568.514 732 611.806 700.974 614 611 c 0
 616 529 617 485 619 401 c 0
 619.548 378.007 630.758 357.185 652 341 c 16
 673 325 686 302 686 266 c 0
 686 235 671.219 207.921 644 185 c 16
 625 169 611 143.244 611 112 c 16
 611 38 595 -17 519 -17 c 0
 437 -17 411 54.7324 411 124 c 16
 411 156 388 179 341 179 c 0
 279 179 241.581 176 178 176 c 16
 84 176 30 212 30 288 c 0
 30 454 230 732 505 732 c 8
EndSplineSet
Fore
SplineSet
387.199 530 m 16
 335.72 530 234.199 425.5 234.199 360.6 c 8
 234.199 337.914 249.591 327.6 277.31 327.6 c 0
 428.779 327.6 434 338.6 434 442 c 0
 434 488.2 423.077 530 387.199 530 c 16
505 732 m 8
 568.514 732 611.806 700.974 614 611 c 0
 616 529 617 485 619 401 c 0
 619.548 378.007 630.758 357.185 652 341 c 16
 673 325 686 302 686 266 c 0
 686 235 671.219 207.921 644 185 c 16
 625 169 611 143.244 611 112 c 16
 611 38 595 -17 519 -17 c 0
 437 -17 411 54.7324 411 124 c 16
 411 156 388 179 341 179 c 0
 279 179 241.581 176 178 176 c 16
 84 176 30 212 30 288 c 0
 30 454 230 732 505 732 c 8
EndSplineSet
Validated: 524289
EndChar

StartChar: five
Encoding: 53 53 8
Width: 644
Flags: HMW
LayerCount: 2
Back
SplineSet
124 726 m 0
 181 726 209 706 337 706 c 0
 434 706 441 721 499 721 c 8
 559.996 721 614 684 614 615 c 8
 614 563.828 595 511 534 511 c 4
 475 511 370 545 294 545 c 0
 261 545 231 532 231 496 c 8
 231 466.894 254 453 292 453 c 8
 325.986 453 351 458 379 458 c 0
 489 458 612 371 612 214 c 8
 612 59.5361 444 -18 291 -18 c 8
 177.8 -18 30 4 30 109 c 0
 30 157 66 195 123 195 c 8
 195.138 195 235 162 305 162 c 8
 361.803 162 428 195 428 240 c 8
 428 290.551 372 316 323 316 c 8
 259.901 316 223 292 163 292 c 0
 110 292 69 327 50 376 c 0
 33.4131 418.777 32 509.719 32 609 c 0
 32 690 71 726 124 726 c 0
EndSplineSet
Fore
SplineSet
124 726 m 0
 181 726 209 706 337 706 c 0
 434 706 441 721 499 721 c 12
 559.996 721 614 684 614 615 c 8
 614 562.321 578 521 517 521 c 0
 458 521 370 545 294 545 c 0
 261 545 231 532 231 496 c 8
 231 466.894 254 453 292 453 c 8
 325.986 453 351 458 379 458 c 0
 524 458 612 378 612 233 c 0
 612 53 444 -18 291 -18 c 8
 177.799 -18 30 4 30 109 c 0
 30 157 66 195 123 195 c 8
 195.138 195 235 162 305 162 c 0
 386 162 428 190 428 240 c 8
 428 290.551 372 316 323 316 c 8
 249.224 316 217 295 135 295 c 0
 88.3893 295 49 322 40 395 c 0
 32.9571 452.126 32 533.516 32 609 c 0
 32 690 71 726 124 726 c 0
EndSplineSet
Validated: 524289
EndChar

StartChar: six
Encoding: 54 54 9
Width: 669
Flags: HMW
LayerCount: 2
Back
SplineSet
353 303 m 24
 301.062 301.545 247.874 272.958 248 221 c 24
 248.115 173.181 297.191 147.024 345 146 c 24
 400.39 144.813 461.231 172.598 461 228 c 24
 460.786 279.279 404.26 304.437 353 303 c 24
376 732 m 0
 476 732 609 691 609 600 c 0
 609 552 567 519 523 519 c 0
 497 519 442 539 392 539 c 8
 319.563 539 233 473 233 443 c 8
 233 430.303 242.303 419 255 419 c 16
 281 419 346 451 402 451 c 8
 526.273 451 639 385 639 238 c 0
 639 128 568 -18 345 -18 c 8
 167.361 -18 30 89 30 311 c 0
 30 600 240 732 376 732 c 0
EndSplineSet
Fore
SplineSet
353 303 m 28
 301.062 301.545 247.874 272.958 248 221 c 28
 248.115 173.181 297.191 147.024 345 146 c 28
 400.39 144.813 461.231 172.598 461 228 c 28
 460.786 279.279 404.26 304.437 353 303 c 28
376 732 m 4
 504 732 609 691 609 600 c 4
 609 552 567 519 523 519 c 4
 470 519 448 548 383 548 c 4
 276 548 233 473 233 443 c 12
 233 430.303 242.303 419 255 419 c 20
 281 419 346 451 402 451 c 12
 526.273 451 639 385 639 238 c 4
 639 128 568 -18 345 -18 c 12
 167.361 -18 30 89 30 311 c 4
 30 600 184 732 376 732 c 4
EndSplineSet
Validated: 524321
EndChar

StartChar: seven
Encoding: 55 55 10
Width: 676
Flags: HMW
LayerCount: 2
Back
SplineSet
30 600 m 0
 30 683 85 723 163 723 c 0
 238 723 257 701 388 701 c 0
 494 701 516 722 574 722 c 8
 638.835 722 695 673 695 608 c 0
 695 560 670.889 508.068 645 466 c 0
 581 362 527 240 502 129 c 8
 484.757 52.4414 471 -22 369 -22 c 0
 306 -22 268 23 268 88 c 0
 268 167 295 213 396 364 c 8
 420.247 400.25 444 429 444 465 c 0
 444 495 428 524 376 524 c 0
 276 524 233 493 151 493 c 0
 57 493 30 563 30 600 c 0
EndSplineSet
Fore
SplineSet
30.4492 600 m 0
 30.4492 683 82.6992 723 156.8 723 c 0
 228.05 723 246.1 701 370.55 701 c 0
 471.25 701 492.149 722 547.25 722 c 0
 620.399 722 666 675 666 600 c 0
 666 550 648.228 513.057 614.699 466 c 0
 534.899 354 473.869 274.728 446.55 95 c 0
 435.149 20 403.8 -22 343 -22 c 0
 264.149 -22 231.85 31 231.85 88 c 0
 231.85 167 259.527 239.432 366.399 368 c 4
 393 400 412 429 412 465 c 4
 412 495 398.699 524 332.199 524 c 4
 258 524 223.3 493 145.399 493 c 0
 56.0996 493 30.4492 563 30.4492 600 c 0
EndSplineSet
Validated: 524289
EndChar

StartChar: eight
Encoding: 56 56 11
Width: 708
Flags: HMW
LayerCount: 2
Back
SplineSet
354.45 726 m 0
 401.078 726 449.788 722.252 491.791 707 c 0
 567.357 679.56 624.616 623.915 624.616 550 c 0
 624.616 496 603.3 461 583.535 438 c 0
 560.403 411.083 558.15 392 586.431 373 c 0
 622.686 348.643 678.9 307.466 678.9 215 c 0
 678.9 73 571.8 -15 354.45 -15 c 0
 137.101 -15 30 73 30 215 c 0
 30 307.466 86.2148 348.643 122.47 373 c 0
 150.75 392 148.497 411.083 125.365 438 c 0
 105.601 461 84.2842 496 84.2842 550 c 0
 84.2842 623.915 141.543 679.56 217.109 707 c 0
 259.112 722.252 307.822 726 354.45 726 c 0
342.774 297.5 m 8
 277.455 297.5 206.83 269.354 206.83 212.8 c 16
 206.83 154.5 285.444 132.5 352.938 132.5 c 16
 415.192 132.5 483.799 157.787 483.799 211.7 c 16
 483.799 270 432.979 297.5 342.774 297.5 c 8
361.352 591 m 8
 310.342 591 252.524 570.84 252.524 517.919 c 8
 252.524 467.184 312.233 449.879 362.602 449.879 c 16
 412.636 449.879 466.425 475.079 466.424 526.739 c 0
 466.424 564.539 407.633 591 361.352 591 c 8
EndSplineSet
Fore
SplineSet
354.45 726 m 0
 401.078 726 449.788 722.252 491.791 707 c 0
 567.357 679.56 624.616 623.915 624.616 550 c 0
 624.616 496 603.3 461 583.535 438 c 0
 560.403 411.083 558.15 392 586.431 373 c 0
 622.686 348.643 678.9 307.466 678.9 215 c 0
 678.9 73 571.8 -15 354.45 -15 c 0
 137.101 -15 30 73 30 215 c 0
 30 307.466 86.2148 348.643 122.47 373 c 0
 150.75 392 148.497 411.083 125.365 438 c 0
 105.601 461 84.2842 496 84.2842 550 c 0
 84.2842 623.915 141.543 679.56 217.109 707 c 0
 259.112 722.252 307.822 726 354.45 726 c 0
349.026 290.75 m 8
 286.973 290.75 219.879 264.012 219.879 210.285 c 16
 219.879 154.9 294.562 134 358.682 134 c 16
 417.823 134 483 158.022 483 209.24 c 16
 483 264.625 434.721 290.75 349.026 290.75 c 8
356.812 586.064 m 8
 308.354 586.064 253.426 566.913 253.426 516.638 c 8
 253.426 468.439 310.149 452 358 452 c 16
 405.532 452 456.632 475.939 456.631 525.017 c 0
 456.631 560.927 400.779 586.064 356.812 586.064 c 8
EndSplineSet
Validated: 524321
EndChar

StartChar: nine
Encoding: 57 57 12
Width: 637
Flags: HMW
LayerCount: 2
Back
SplineSet
323 405 m 8
 372.146 405 425 437 425 479 c 0
 425 523 371.465 556.476 321 556 c 24
 271.78 555.536 221 524 221 479 c 8
 221 429.854 274 405 323 405 c 8
260 284 m 16
 132 284 40 368.045 40 484 c 16
 40 633 171.557 720 312 720 c 16
 455 720 518 680 571 592 c 0
 607.676 531.104 629 450.966 629 351 c 0
 629 266.529 618.655 188.971 584 134 c 4
 526 42 428.643 -16 311 -16 c 0
 234.769 -16 130.71 -3.2959 73 42 c 0
 46.6797 62.6592 30 93.4844 30 127 c 0
 30 182 74 219 118 219 c 0
 187 219 222.941 166 295 166 c 16
 356 166 432 210 432 248 c 0
 432 282 392.908 292 360 292 c 16
 325 292 299.125 284 260 284 c 16
EndSplineSet
Fore
SplineSet
313 412 m 8
 362.146 412 415 435 415 486 c 0
 415 537 361.465 563.476 311 563 c 24
 261.78 562.536 211 537 211 486 c 0
 211 437 264 412 313 412 c 8
250 284 m 16
 102 284 30 368.045 30 484 c 16
 30 633 161.557 720 302 720 c 16
 531 720 607 568 607 351 c 0
 607 99 459 -16 277 -16 c 0
 200.769 -16 124 0 78 33 c 0
 50.8125 52.5039 35 84.4844 35 118 c 0
 35 173 79 210 123 210 c 0
 192 210 203 166 285 166 c 0
 360 166 422 196 422 248 c 0
 422 282 382.908 292 350 292 c 16
 315 292 289.125 284 250 284 c 16
EndSplineSet
Validated: 524321
EndChar

StartChar: afii57675
Encoding: 1499 1499 13
Width: 622
Flags: HMW
LayerCount: 2
Back
SplineSet
40 468 m 16
 40 574 178 622 269 622 c 0
 480 622 592 473 592 309 c 0
 592 98 465 -13 247 -13 c 0
 163 -13 30 -2 30 100 c 0
 30 164 79 193 133 193 c 4
 190 193 204 172 272 172 c 4
 376 172 424 224.742 424 303 c 20
 424 385 364 430 279 430 c 4
 217 430 187 390 130 390 c 4
 84 390 40 421.553 40 468 c 16
EndSplineSet
Fore
SplineSet
40 475 m 0
 40 570 178 622 269 622 c 0
 480 622 592 473 592 309 c 0
 592 98 465 -13 247 -13 c 0
 163 -13 30 -4 30 105 c 4
 30 165 88.9004 198.4 140.2 198.4 c 0
 194.35 198.4 207.65 178.45 272.25 178.45 c 0
 371.05 178.45 416.65 228.555 416.65 302.9 c 16
 416.65 380.8 359.65 423.55 278.9 423.55 c 0
 220 423.55 191.5 385.55 137.35 385.55 c 0
 93.6504 385.55 40 412 40 475 c 0
EndSplineSet
Validated: 524289
EndChar

StartChar: afii57676
Encoding: 1500 1500 14
Width: 680
Flags: HMW
LayerCount: 2
Back
SplineSet
50 578 m 0
 50 629 55.9922 674.283 70 734 c 16
 89 815 120.978 836.613 180 838 c 24
 227.83 839.124 269 806 273 758 c 0
 275.926 722.894 258 679 258 644 c 8
 258 609.733 287 586 324 586 c 0
 378 586 450 620 510 620 c 0
 631 620 670 513 670 414 c 0
 670 306 638 232 592 154 c 0
 536.418 59.752 471 -16 394 -16 c 0
 329 -16 284 23.0596 284 80 c 16
 284 141 332.447 193.005 392 238 c 16
 437 272 476 298.145 476 354 c 16
 476 396 445 424 388 424 c 0
 286 424 259.398 396 176 396 c 16
 87 396 50 475 50 578 c 0
EndSplineSet
Fore
SplineSet
30 578 m 0
 30 629 35.9922 674.283 50 734 c 16
 69 815 100.978 836.614 160 838 c 28
 207.83 839.124 253 806.166 253 758 c 0
 253 710 238 693 238 644 c 8
 238 609.733 267 586 304 586 c 0
 358 586 430 620 490 620 c 0
 611 620 650 513 650 414 c 0
 650 306 623 229 577 151 c 0
 521.418 56.752 451 -16 374 -16 c 0
 309 -16 264 23.0596 264 80 c 16
 264 141 312.447 193.005 372 238 c 16
 417 272 456 298.145 456 354 c 16
 456 396 425 424 368 424 c 0
 266 424 239.398 396 156 396 c 16
 67 396 30 475 30 578 c 0
EndSplineSet
Validated: 524321
EndChar

StartChar: afii57677
Encoding: 1501 1501 15
Width: 684
Flags: HMW
LayerCount: 2
Back
SplineSet
340 424 m 16
 424 424 493 370 493 291 c 8
 493 232.208 456 189 382 189 c 0
 305 189 284 272 284 343 c 8
 284 381.404 301.596 424 340 424 c 16
124 613 m 16
 209 613 263.414 595 353 595 c 16
 417 595 455 612 517 612 c 8
 588.254 612 653 561.254 653 490 c 16
 653 433 643 387 643 324 c 8
 643 224.494 676 159 676 71 c 8
 676 21.5068 629.493 -12 580 -12 c 16
 514 -12 476.465 0 410 0 c 16
 332 0 289.472 -16 212 -16 c 16
 146 -16 102 39.7988 102 103 c 16
 102 151 117 186.251 117 240 c 16
 117 424 30 425 30 517 c 0
 30 555 71.6006 613 124 613 c 16
EndSplineSet
Fore
SplineSet
323.935 435.75 m 0
 271.435 435.75 252.484 391.192 252.484 346.65 c 16
 252.484 268.55 275.585 177.25 360.284 177.25 c 0
 441.685 177.25 482.385 224.779 482.385 289.45 c 16
 482.385 348.5 470.313 378.4 443.935 402.979 c 0
 414.935 430 384.645 435.75 323.935 435.75 c 0
123.935 613 m 16
 208.935 613 263.349 595 352.935 595 c 16
 452.904 595 533.079 616 601.935 547 c 0
 658.007 490.81 653.935 422.99 653.935 324 c 8
 653.935 225.2 649.935 154 640.935 71 c 8
 636.029 25.7627 604.438 -12 558.935 -12 c 16
 492.935 -12 455.399 0 388.935 0 c 16
 310.935 0 268.406 -16 190.935 -16 c 16
 124.935 -16 80.9346 39.7998 80.9346 103 c 16
 80.9346 151 91.5234 186.433 95.9346 240 c 16
 102.935 325 99.9346 380 69.9346 422 c 0
 48.1709 452.469 29.9346 472.336 29.9346 517 c 0
 29.9346 555 71.5352 613 123.935 613 c 16
EndSplineSet
Validated: 524321
EndChar

StartChar: afii57678
Encoding: 1502 1502 16
Width: 701
Flags: HMW
LayerCount: 2
Back
SplineSet
185 611 m 0
 258 611 267 567 324 567 c 0
 377 567 416 626 484 626 c 0
 641 626 698 426 698 286 c 8
 698 132.9 598 -15 446 -15 c 0
 366 -15 279 18.5791 279 97 c 16
 279 127.5 297.319 152.868 325.5 167.5 c 0
 351.5 181 370.003 178.053 395 182 c 8
 464.811 193.022 529 202 529 304 c 8
 529 362.926 489.926 419 431 419 c 16
 355 419 308 309 290 237 c 0
 281.097 201.389 277.59 129.614 262 96 c 4
 230 27 201 -17 134 -17 c 8
 78.46 -17 50 36 50 98 c 0
 50 241 121 262 121 354 c 0
 121 414 76 450.428 76 516 c 16
 76 570 126 611 185 611 c 0
EndSplineSet
Fore
SplineSet
128.499 617 m 4
 201.499 617 222.805 567 279.805 567 c 0
 349.745 567 345.745 619 438.079 619 c 0
 595.079 619 671.745 465.189 671.745 327 c 0
 671.745 91 584.306 -20 432.306 -20 c 0
 352.306 -20 301.38 14 301.38 74 c 0
 301.38 139.089 333.462 165.992 415.559 185.074 c 0
 465.091 196.587 498.588 225 498.588 304 c 8
 498.588 364.478 455.038 419 394.561 419 c 16
 318.561 419 283.605 343.951 265.89 241 c 0
 254.533 175.006 248.822 95.1729 217.267 43 c 0
 195.826 7.55273 166.446 -17 120.411 -17 c 8
 57.3682 -17 30 43.0156 30 117 c 0
 30 222 92.5254 267.023 87.9678 354 c 0
 84.8232 414 34.4775 453 34.4775 516 c 0
 34.4775 570.074 69.499 617 128.499 617 c 4
EndSplineSet
Validated: 524321
EndChar

StartChar: afii57679
Encoding: 1503 1503 17
Width: 331
Flags: HMW
LayerCount: 2
Back
SplineSet
177 622 m 16
 238 622 269 565.829 269 509 c 16
 269 416 254 322 254 192 c 0
 254 -83 301 -66 301 -178 c 0
 301 -237 254.637 -283 197 -283 c 16
 83 -283 41 -160.709 41 -52 c 16
 41 26 62 54 62 223 c 0
 62 337 30 369 30 453 c 8
 30 540.354 89.6455 622 177 622 c 16
EndSplineSet
Fore
SplineSet
163 622 m 4
 239 622 276 574 269 462 c 4
 263.199 369.181 254 322 254 192 c 4
 254 -14 301 -43 301 -159 c 4
 301 -234 260.117 -283 197 -283 c 20
 83 -283 50 -166 50 -89 c 4
 50 20 62 54 62 223 c 4
 62 337 30 369 30 453 c 12
 30 536.873 90 622 163 622 c 4
EndSplineSet
Validated: 524321
EndChar

StartChar: afii57680
Encoding: 1504 1504 18
Width: 511
Flags: HMW
LayerCount: 2
Back
SplineSet
143.007 514 m 0
 143.007 572 188.007 618 247.007 618 c 0
 404.007 618 481.007 509 481.007 301 c 0
 481.007 238 474.007 174 467.007 112 c 8
 460.495 54.3262 432.007 0 369.007 0 c 8
 284.117 0 222.007 -17 152.007 -17 c 0
 87.0068 -17 29.293 40.6035 30.0068 109 c 24
 30.6143 167.186 91.0068 214 136.007 214 c 8
 178.533 214 197.007 193 243.007 193 c 8
 274.996 193 301.007 217 301.007 251 c 0
 301.007 290 293.299 321.805 278.007 353 c 4
 265.507 378.5 245.007 395.5 228.507 403.5 c 0
 169.687 432.019 143.007 462 143.007 514 c 0
EndSplineSet
Fore
SplineSet
143.007 514 m 4
 143.007 572 188.007 618 247.007 618 c 4
 404.007 618 481.007 509 481.007 301 c 4
 481.007 238 475 165 467.007 107 c 12
 459.083 49.5029 432.007 -5 369.007 -5 c 12
 284.269 -5 222.007 -16 152.007 -16 c 4
 87.0068 -16 30.0068 25 30.0068 97 c 4
 30.0068 165 88 201 133 201 c 12
 176.201 201 197.007 188 243.007 188 c 12
 276.403 188 297.541 217.177 301.007 251 c 4
 309 329 289 359 250 386 c 4
 207.563 415.379 143.007 436.661 143.007 514 c 4
EndSplineSet
Validated: 524321
EndChar

StartChar: afii57681
Encoding: 1505 1505 19
Width: 639
Flags: HMW
LayerCount: 2
Back
SplineSet
281 451 m 12
 215.021 451 170 395 167 326 c 4
 162.786 229.092 206.204 162 285 162 c 20
 352 162 400 225.017 400 293 c 20
 400 386 361 451 281 451 c 12
300 622 m 16
 486 622 583 480 583 312 c 0
 583 100 461 -11 315 -11 c 0
 134 -11 20 144.243 20 316 c 16
 20 523 138.239 622 300 622 c 16
EndSplineSet
Fore
SplineSet
304.619 439.5 m 12
 242.271 439.5 199.725 389.101 196.891 327 c 4
 192.908 239.783 233.938 179.4 308.399 179.4 c 20
 371.715 179.4 417.074 236.115 417.074 297.3 c 20
 417.074 381 380.22 439.5 304.619 439.5 c 12
318.4 622 m 16
 509.98 622 609.891 480 609.891 312 c 0
 609.891 100 484.23 -11 333.851 -11 c 0
 147.42 -11 30 144.243 30 316 c 16
 30 523 151.787 622 318.4 622 c 16
EndSplineSet
Validated: 524321
EndChar

StartChar: afii57682
Encoding: 1506 1506 20
Width: 717
Flags: HMW
LayerCount: 2
Back
SplineSet
188 617 m 8
 266.004 617 302.473 541.443 318 465 c 16
 331 401 332 347 332 286 c 0
 332 246 354.473 196 398 196 c 16
 484 196 497.73 366.629 496 486 c 16
 495 555 530 619 597 619 c 0
 687 619 707 527.297 707 448 c 16
 707 134 535.866 -40 284 -40 c 16
 140 -40 50 -14 50 79 c 0
 50 160 148.5 185 148.5 252 c 0
 148.5 338 84 400.685 84 501 c 16
 84 559 119 617 188 617 c 8
EndSplineSet
Fore
SplineSet
168 617.061 m 8
 246.004 617.061 282.473 543.8 298 469.681 c 16
 311 407.627 312 355.269 312 296.123 c 0
 312 257.339 334.474 208.859 378 208.859 c 16
 464 208.859 477.73 374.301 476 490.043 c 16
 475 556.945 510 619 577 619 c 0
 667 619 687 530.085 687 453.198 c 16
 687 148.744 515.866 -19.9668 264 -19.9668 c 16
 101 -19.9668 30 15.9082 30 83.7803 c 0
 30 149.714 79.3584 162.812 115 175.893 c 0
 142.872 186.122 160.034 208.659 154 243.765 c 0
 143 307.758 64 397.324 64 504.587 c 16
 64 560.824 99 617.061 168 617.061 c 8
EndSplineSet
Validated: 524321
EndChar

StartChar: afii57683
Encoding: 1507 1507 21
Width: 681
Flags: HMW
LayerCount: 2
Back
SplineSet
30 385 m 20
 30 468.83 68 535 135 580 c 4
 179.504 609.891 241.883 619 310 619 c 4
 448 619 552.921 557.929 601 456 c 4
 651 350 656 108 656 -38 c 4
 656 -136 659 -321 543 -321 c 12
 460.981 -321 431 -254 431 -143 c 4
 431 -8 450 75.1836 450 215 c 20
 450 252.146 448.451 289.662 438 321 c 4
 414.688 390.897 354 438 288 438 c 4
 256 438 235 417.887 235 390 c 20
 235 340 316 310.435 316 246 c 20
 316 188 250.224 166 193 166 c 20
 88 166 30 278.529 30 385 c 20
EndSplineSet
Fore
SplineSet
30 385 m 20
 30 468.83 68 535 135 580 c 4
 179.504 609.891 241.883 619 310 619 c 4
 448 619 553.711 558.298 601 456 c 4
 650 350 651 143 651 -38 c 4
 651 -136 659 -321 543 -321 c 12
 462.003 -321 436 -254 436 -143 c 4
 436 -8 460 75.0664 460 215 c 20
 460 252.146 458.451 289.662 448 321 c 4
 424.688 390.897 360 438 288 438 c 4
 256 438 235 417.887 235 390 c 20
 235 340 316 310.435 316 246 c 20
 316 188 268 166 212 166 c 4
 84 166 30 273.946 30 385 c 20
EndSplineSet
Validated: 524321
EndChar

StartChar: afii57684
Encoding: 1508 1508 22
Width: 639
Flags: HMW
LayerCount: 2
Back
SplineSet
287 619 m 0
 377 619 444.467 590.227 509 521 c 16
 564 462 577 403.385 577 321 c 16
 577 238 559.398 158.91 494 88 c 24
 427.018 15.373 354 -16 263 -16 c 0
 143 -16 52.4326 23.6738 52 122 c 24
 51.7715 174.027 91 196 163 196 c 0
 229 196 267.844 184.674 328 208 c 16
 377 227 418 272.929 418 333 c 16
 418 360 402.194 388.732 381.5 408.5 c 0
 359.812 429.216 332.609 444 306 444 c 0
 281 444 247 428 247 399 c 0
 247 374 267 359.27 267 332 c 16
 267 297 243 267 193 267 c 0
 113 267 50 315 50 413 c 8
 50 535.466 134 619 287 619 c 0
EndSplineSet
Fore
SplineSet
290.699 619 m 4
 406.199 619 492 584 547 516 c 4
 590.268 462.505 609.699 400.232 609.699 321 c 20
 609.699 238 590.338 158.91 518.399 88 c 28
 444.719 15.373 364.399 -16 264.3 -16 c 4
 132.3 -16 32.6758 23.6738 32.1992 122 c 28
 31.9482 174.027 75.0996 196 154.3 196 c 4
 226.899 196 269.628 184.674 335.8 208 c 20
 389.699 227 434.8 272.929 434.8 333 c 20
 434.8 360 417.412 388.732 394.649 408.5 c 4
 370.793 429.216 340.871 444 311.6 444 c 4
 284.1 444 246.699 428 246.699 399 c 4
 246.699 374 268.699 359.27 268.699 332 c 20
 268.699 297 242.3 267 187.3 267 c 4
 99.2998 267 30 315 30 413 c 12
 30 535.466 122.399 619 290.699 619 c 4
EndSplineSet
Validated: 524321
EndChar

StartChar: afii57685
Encoding: 1509 1509 23
Width: 683
Flags: HMW
LayerCount: 2
Back
SplineSet
142 614 m 12
 212.907 614 247 557 258 474 c 12
 268.934 391.504 298 293 371 293 c 12
 422.186 293 447 350 447 400 c 4
 447 476 427 489 427 543 c 12
 427 590.338 473 621 520 621 c 12
 599.653 621 653 540 653 466 c 12
 653 376.762 610 312 572 252 c 12
 518.391 167.354 483 70 483 11 c 12
 483 -67.041 504 -109.959 504 -188 c 20
 504 -258 469.727 -299.781 414 -299 c 28
 326.099 -297.768 288.649 -211.527 277 -120 c 4
 263 -10 244 57 185 168 c 4
 149.317 235.132 114.103 299.263 63 382 c 4
 42 416 30 450.34 30 497 c 20
 30 559 80 614 142 614 c 12
EndSplineSet
Fore
SplineSet
142 614 m 8
 212.907 614 247 557 258 474 c 8
 268.934 391.504 298 293 371 293 c 8
 422.186 293 447 350 447 400 c 0
 447 476 427 489 427 543 c 8
 427 590.338 473 621 520 621 c 8
 599.653 621 653 540 653 466 c 8
 653 376.762 610 312 572 252 c 8
 526.121 179.56 467.344 123.571 458 64 c 0
 442 -38 504 -78 504 -188 c 0
 504 -258 469.727 -299.781 414 -299 c 24
 326.099 -297.768 288.649 -211.527 277 -120 c 0
 263 -10 244 57 185 168 c 0
 149.317 235.132 114.103 299.263 63 382 c 0
 42 416 30 450.34 30 497 c 16
 30 559 80 614 142 614 c 8
EndSplineSet
Validated: 524321
EndChar

StartChar: afii57686
Encoding: 1510 1510 24
Width: 649
Flags: HMW
LayerCount: 2
Back
SplineSet
158 621.5 m 0
 217 621.5 262 582.5 282 533 c 8
 295.398 499.839 307.172 483.005 325 452 c 16
 336.5 432 347.5 420 368 420 c 0
 392.5 420 406 435.5 409.5 464.5 c 8
 419.338 546.012 457 619 552.5 619 c 0
 609.5 619 640 574 640 513.5 c 0
 640 453.5 567 382 567 280 c 0
 567 215 623 194.5 623 112 c 8
 623 39.6152 567 0 475 0 c 8
 364.796 0 278 -18 193 -18 c 8
 115.767 -18 50 41.7666 50 119 c 16
 50 174 93 213 140 213 c 8
 199.2 213 231 184 289 184 c 0
 318 184 333 200.439 333 223.5 c 16
 333 257.5 296 284 261 302.5 c 8
 210.748 329.062 174.385 347.58 134 374 c 0
 80.5 409 60 450.273 60 511 c 16
 60 567.5 97 621.5 158 621.5 c 0
EndSplineSet
Fore
SplineSet
138 621.5 m 4
 203.5 621.5 236 588.5 262 533 c 12
 285.494 482.849 311 420 348 420 c 4
 372.5 420 386 435.5 389.5 464.5 c 12
 399.338 546.012 437 619 532.5 619 c 4
 589.5 619 626.215 578.312 619 501.5 c 4
 610.5 411 520.891 401.677 529 300 c 4
 535.5 218.5 603 215.5 603 112 c 12
 603 39.6152 547 0 455 0 c 12
 344.796 0 258 -18 173 -18 c 4
 75.5 -18 30 38.5 30 104.5 c 4
 30 159.5 60.6367 208.962 120 213 c 4
 193.5 218 200 184 269 184 c 4
 298 184 313 200.439 313 223.5 c 20
 313 257.5 276 284 241 302.5 c 12
 190.748 329.062 154.385 347.58 114 374 c 4
 60.5 409 40 450.273 40 511 c 20
 40 567.5 77 621.5 138 621.5 c 4
EndSplineSet
Validated: 524321
EndChar

StartChar: afii57687
Encoding: 1511 1511 25
Width: 708
Flags: HMW
LayerCount: 2
Back
SplineSet
175 292 m 20
 242 293 270 253 270 188 c 4
 270 157 265 135.597 265 102 c 20
 265 38 279 -17 296 -76 c 4
 306.006 -110.726 315 -146.772 315 -193 c 20
 315 -279 259.018 -313 192 -313 c 20
 82 -313 69 -197 69 -65 c 4
 69 11 72 91 82 170 c 4
 89.0605 225.777 115.179 291.107 175 292 c 20
50 467 m 4
 50 519 76 561 120 587 c 4
 165.434 613.847 241 626 326 626 c 4
 429 626 507 616 583 567 c 4
 666.114 513.413 698 432.667 698 336 c 4
 698 203 666 17 530 17 c 4
 460 17 413 50 413 122 c 4
 413 161 430.159 189.449 457 223 c 20
 477 248 499 277 499 321 c 4
 499 387 451 424 376 424 c 12
 292.642 424 249 367 170 367 c 4
 101 367 50 402 50 467 c 4
EndSplineSet
Fore
SplineSet
155 292 m 16
 222 293 250 253 250 188 c 0
 250 157 245 135.597 245 102 c 16
 245 38 259 -17 276 -76 c 0
 286.006 -110.726 295 -146.772 295 -193 c 16
 295 -279 239.018 -313 172 -313 c 20
 62 -313 49 -197 49 -65 c 0
 49 11 52 91 62 170 c 0
 69.0605 225.777 95.1787 291.107 155 292 c 16
30 467 m 0
 30 519 56 561 100 587 c 0
 145.434 613.847 221 626 306 626 c 0
 409 626 487 616 563 567 c 0
 646.114 513.413 678 432.667 678 336 c 0
 678 203 607 11 444 11 c 0
 381 11 344 49 344 105 c 0
 344 142 364.979 170.148 392 190 c 0
 441 226 479 261.471 479 321 c 0
 479 387 431 424 356 424 c 8
 272.642 424 229 367 150 367 c 0
 81 367 30 402 30 467 c 0
EndSplineSet
Validated: 524321
EndChar

StartChar: afii57688
Encoding: 1512 1512 26
Width: 689
Flags: HMW
LayerCount: 2
Back
SplineSet
322 617 m 4
 637 617 679 475 679 291 c 8
 679 163.973 669 -11 557 -11 c 0
 489 -11 453 48 453 117 c 0
 453 180 476 214 476 282 c 0
 476 354 410.327 414 335 414 c 16
 263 414 226 369 158 369 c 8
 100.861 369 50 410.861 50 468 c 16
 50 513.5 77.5059 550.119 109 574 c 0
 154.5 608.5 228.106 617 322 617 c 4
EndSplineSet
Fore
SplineSet
332 617 m 0
 598 617 659 475 659 291 c 8
 659 163.973 649 -11 537 -11 c 0
 469 -11 433 38 433 117 c 0
 433 189 456 214 456 282 c 0
 456 373 398 414 315 414 c 0
 243 414 206 369 138 369 c 8
 80.8613 369 30 410.861 30 468 c 16
 30 513.5 56.6768 551.254 89 574 c 0
 143 612 230 617 332 617 c 0
EndSplineSet
Validated: 524289
EndChar

StartChar: afii57689
Encoding: 1513 1513 27
Width: 868
Flags: HMW
LayerCount: 2
Back
SplineSet
157.5 618 m 12
 214.352 618 254.5 578 256.5 511 c 12
 257.489 477.855 253.431 459.142 254.5 426 c 20
 255.5 395 268.48 365 294.5 365 c 4
 325.5 365 332.86 405.799 334.5 439 c 4
 338.5 520 347.5 619 446.5 619 c 4
 517.5 619 562.5 574 562.5 517 c 12
 562.5 456.879 535.5 414 502.5 375 c 12
 468.805 335.179 445.5 287 445.5 254 c 4
 445.5 227 466.5 201 492.5 201 c 4
 565.5 201 615.5 305 615.5 415 c 12
 615.5 510.836 655.5 619 752.5 619 c 12
 823.181 619 858.5 563 858.5 472 c 4
 858.5 355 822 225 748 129 c 4
 657.016 10.9665 557 -22 447.5 -22 c 4
 312.5 -22 207 21 134.5 137 c 4
 66.2695 246.169 50 369 50 467.5 c 4
 50 577.5 97 618 157.5 618 c 12
EndSplineSet
Fore
SplineSet
137.5 618 m 8
 194.352 618 234.5 578 236.5 511 c 8
 237.489 477.855 233.431 459.142 234.5 426 c 16
 235.5 395 248.48 365 274.5 365 c 0
 305.5 365 312.86 405.799 314.5 439 c 0
 318.5 520 327.5 619 426.5 619 c 0
 497.5 619 542.5 574 542.5 517 c 8
 542.5 435.108 511.399 355.272 477 317.5 c 0
 451.5 289.5 419.5 267.5 389 253.183 c 0
 366.928 242.821 352 224 352 204.5 c 0
 352 175.5 373.137 161.662 399 159 c 0
 535 145 595.5 305 595.5 415 c 8
 595.5 510.836 635.5 619 732.5 619 c 8
 803.181 619 838.5 563 838.5 472 c 0
 838.5 355 802 225 728 129 c 0
 637.016 10.9668 537 -22 427.5 -22 c 0
 292.5 -22 187 21 114.5 137 c 0
 46.2695 246.169 30 369 30 467.5 c 0
 30 577.5 77 618 137.5 618 c 8
EndSplineSet
Validated: 524321
EndChar

StartChar: afii57690
Encoding: 1514 1514 28
Width: 777
Flags: HMW
LayerCount: 2
Back
SplineSet
115 499 m 0
 115 571 163 622 268 622 c 0
 324 622 373 600 474 600 c 8
 596.727 600 701 593 730 417 c 8
 741.364 348.032 734.995 307.783 739 238 c 24
 741.776 189.619 747 162.461 747 114 c 16
 747 49 712 -15 628 -15 c 0
 550 -15 520 37 520 106 c 8
 520 187.847 539 234 539 315 c 8
 539 369.983 520 435 465 435 c 8
 398.925 435 354 368 354 307 c 8
 354 255.483 359 222 359 175 c 0
 359 89 292 -13 173 -13 c 0
 89 -13 30 18 30 94 c 8
 30 140.703 70.9766 178.15 109 184 c 0
 174 194 198 228 198 279 c 8
 198 329.348 180 365 153 400 c 8
 127.739 432.745 115 466 115 499 c 0
EndSplineSet
Fore
SplineSet
115 499 m 0
 115 571 163 622 268 622 c 0
 324 622 373 600 474 600 c 8
 596.727 600 701 593 730 417 c 8
 741.364 348.032 734.995 307.783 739 238 c 24
 741.776 189.619 747 162.461 747 114 c 16
 747 49 712 -15 628 -15 c 0
 550 -15 520 37 520 106 c 8
 520 187.846 539 234 539 315 c 8
 539 372.127 517.5 435 455 435 c 0
 375 435 354 368 354 307 c 8
 354 255.483 359 222 359 175 c 0
 359 89 292 -13 173 -13 c 0
 128.094 -13 94.8916 -8.92772 71 7 c 0
 41 27 30 53 30 83 c 0
 30 146 71.466 175.562 109 184 c 0
 173.5 198.5 198 228 198 279 c 8
 198 329.348 180 365 153 400 c 8
 127.739 432.745 115 466 115 499 c 0
EndSplineSet
Validated: 524289
EndChar

StartChar: .notdef
Encoding: 65537 -1 29
Width: 1000
LayerCount: 2
Back
SplineSet
221 235.1 m 12
 221 198.64 232.4 161 278 161 c 4
 373.475 161 472.75 205.175 472.75 317.75 c 12
 472.75 380.369 424.775 429.85 357.8 429.85 c 4
 276.1 429.85 221 327.725 221 235.1 c 12
30 184 m 0
 30 388 131 617 358 617 c 8
 537.73 617 668 499 668 276 c 8
 668 118.854 558 -24 399 -24 c 0
 362 -24 339.575 -15.3672 305 0 c 16
 287 8 270 17 250 17 c 8
 232.69 17 221 7 209 0 c 8
 189.795 -11.2031 176.233 -15 154 -15 c 16
 42 -15 30 94 30 184 c 0
EndSplineSet
Fore
Validated: 2097153
EndChar

StartChar: quotesingle
Encoding: 39 39 30
Width: 263
Flags: HMW
LayerCount: 2
Fore
SplineSet
146.55 689.9 m 12
 192.086 689.9 233.7 664.7 233.7 612.2 c 4
 233.7 526.101 149.7 440 90.8994 440 c 4
 52.0498 440 30 456.801 30 497.75 c 4
 30 582.801 62.5498 689.9 146.55 689.9 c 12
EndSplineSet
Validated: 524289
EndChar

StartChar: asterisk
Encoding: 42 42 31
Width: 588
Flags: HMW
LayerCount: 2
Back
SplineSet
295.698 584.875 m 16
 326.748 584.875 352.305 571.315 365.849 542.325 c 16
 392.162 486 333.556 448.791 371.662 420 c 24
 410.041 391.003 432.662 455.5 491.773 448.025 c 8
 521.766 444.232 543.235 429.382 553.298 400.875 c 24
 564.052 370.41 558.617 340.998 533.748 320.375 c 16
 485.662 280.5 425.759 330.544 407.105 282.482 c 24
 388.748 235.184 461.162 230 473.948 170.875 c 8
 480.319 141.416 472.798 115.675 448.648 97.8496 c 8
 423.022 78.9346 391.674 79.0645 366.998 99.5752 c 0
 317.162 141 337.662 220 296.475 219.692 c 8
 239.761 219.269 273.662 136 219.798 96.125 c 8
 192.192 75.6895 154.944 80.625 131.823 100.15 c 0
 105.948 122 101.595 160.021 110.548 186.975 c 0
 127.662 238.5 169.162 236.5 161.924 276.503 c 8
 152.052 331.062 82.6621 283.5 40.3984 350.275 c 0
 26.0898 372.882 27.748 398 38.0986 420.425 c 8
 50.9443 448.257 75.4307 460.702 105.948 460.1 c 0
 161.662 459 179.504 400.77 217.239 426.003 c 24
 253.622 450.332 214.162 488 227.849 537.725 c 8
 236.4 568.793 263.475 584.875 295.698 584.875 c 16
EndSplineSet
Fore
SplineSet
295.698 584.875 m 20
 326.748 584.875 352.284 571.306 365.849 542.325 c 20
 388 495 363 464 388 444 c 4
 415.806 421.755 440 456 491.773 448.025 c 12
 521.651 443.423 543.235 429.382 553.298 400.875 c 28
 564.052 370.41 558.639 340.973 533.748 320.375 c 20
 491 285 451 304 437 273 c 4
 422.624 241.167 469.052 222.125 478 169 c 12
 482.985 139.399 471 111 448.648 97.8496 c 4
 421.925 82.1274 395.482 83.0099 366.998 99.5752 c 4
 325 124 325 180 293 179 c 4
 253.904 177.778 265.565 123.822 219.798 96.125 c 4
 191.5 79 155.5 82 131.823 100.15 c 4
 106.252 119.752 100.5 160 110.548 186.975 c 4
 125.416 226.889 143 234 134 273 c 4
 125.219 311.051 71.5 300 40.3984 350.275 c 4
 26.3228 373.028 27.748 398 38.0986 420.425 c 12
 50.9443 448.256 75.436 459.271 105.948 460.1 c 4
 157.5 461.5 174 433 201 450 c 4
 228.584 467.368 214 488.5 229.5 534 c 12
 240 564.821 263.138 584.875 295.698 584.875 c 20
EndSplineSet
Validated: 524321
EndChar

StartChar: plus
Encoding: 43 43 32
Width: 542
Flags: HMW
LayerCount: 2
Back
SplineSet
275 562 m 20
 319 562 354 534 361 480 c 4
 368.551 421.749 391 412 432 400 c 12
 474.612 387.528 512 376 512 319 c 12
 512 273.72 486.173 251.173 434 233 c 4
 389.5 217.5 365.5 202 355 166 c 12
 342.182 122.05 316.5 84 271 84 c 12
 229.964 84 200.902 113.441 192 153.5 c 20
 183 194 159 230 114.5 232.5 c 12
 68.2422 235.099 30 262 30 316 c 12
 30 355.651 51.6523 381.011 94 395 c 4
 150 413.5 181.5 434.5 193 486 c 12
 202.503 528.556 231.396 562 275 562 c 20
EndSplineSet
Fore
SplineSet
275 562 m 16
 319 562 354 534 361 480 c 4
 368.551 421.749 391 412 432 400 c 12
 474.612 387.528 512 376 512 319 c 8
 512 273.72 486.173 251.173 434 233 c 4
 389.5 217.5 365.5 202 355 166 c 12
 342.182 122.05 316.5 84 271 84 c 8
 229.964 84 200.902 113.441 192 153.5 c 20
 183 194 162 224 114.5 232.5 c 12
 68.8937 240.661 30 262 30 316 c 8
 30 355.651 51.6523 381.011 94 395 c 4
 150 413.5 181.5 434.5 193 486 c 12
 202.503 528.556 231.396 562 275 562 c 16
EndSplineSet
Validated: 524289
EndChar

StartChar: comma
Encoding: 44 44 33
Width: 314
Flags: HMW
LayerCount: 2
Back
SplineSet
150 210.4 m 16
 217.1 210.4 267.699 162 267.699 102.601 c 0
 267.699 25.6006 220.399 -14 159.899 -14 c 0
 89.5 -14 40 34.4004 40 107 c 8
 40 165.878 91.1221 210.4 150 210.4 c 16
EndSplineSet
Fore
SplineSet
152 215 m 8
 224.423 215 274 153 274 75 c 8
 274 -29.8184 209 -150 127 -150 c 8
 100.792 -150 73 -136.208 73 -110 c 16
 73 -64 97 -52 97 -14 c 0
 97 -1.25643 90.879 6.53488 79.666 15.666 c 0
 56.3333 34.6667 40 61.6775 40 92 c 0
 40 156 88 215 152 215 c 8
EndSplineSet
Validated: 524289
EndChar

StartChar: hyphen
Encoding: 45 45 34
Width: 572
Flags: HMW
LayerCount: 2
Back
SplineSet
136.2 424.9 m 8
 196.832 424.9 230.367 407.357 291 407.3 c 24
 348.804 407.245 382.8 423.8 438.6 423.8 c 4
 497.993 423.8 542.1 391.9 542.1 321.5 c 8
 542.1 250.372 496.2 212.6 422.399 212.6 c 8
 373.08 212.6 345.719 226.192 296.399 225.8 c 24
 235.735 225.317 202.267 207.1 141.6 207.1 c 16
 59.7002 207.1 30 259.9 30 316 c 8
 30 382.079 74.0996 424.9 136.2 424.9 c 8
EndSplineSet
Fore
SplineSet
136.2 424.9 m 8
 196.798 424.9 230.402 411.489 291 411.5 c 24
 346.394 411.51 376.7 423.8 432.5 423.8 c 0
 491.894 423.8 542.1 391.9 542.1 321.5 c 8
 542.1 258.388 496.2 212.6 422.399 212.6 c 8
 373.137 212.6 345.659 222.048 296.399 221.5 c 24
 235.771 220.826 202.232 207.1 141.6 207.1 c 16
 59.7002 207.1 30 259.9 30 316 c 8
 30 375.323 67.5 424.9 136.2 424.9 c 8
EndSplineSet
Validated: 524321
EndChar

StartChar: period
Encoding: 46 46 35
Width: 307
Flags: HMW
LayerCount: 2
Back
SplineSet
152 190 m 20
 213 190 259 146 259 92 c 4
 259 22 216 -14 161 -14 c 4
 97 -14 52 30 52 96 c 12
 52 149.525 98.4746 190 152 190 c 20
EndSplineSet
Fore
SplineSet
150 210.4 m 20
 217.1 210.4 267.699 162 267.699 102.601 c 4
 267.699 25.6006 220.399 -14 159.899 -14 c 4
 89.5 -14 40 34.4004 40 107 c 12
 40 165.878 91.1221 210.4 150 210.4 c 20
EndSplineSet
Validated: 524289
EndChar

StartChar: slash
Encoding: 47 47 36
Width: 514
Flags: HMW
LayerCount: 2
Back
SplineSet
276.467 631 m 4
 320.649 693.329 377.927 733.492 437.467 700 c 28
 497.892 666.01 499.467 600 462.467 524 c 4
 427.218 451.595 395.064 407.414 355.467 331 c 28
 302.66 229.095 285.467 171 227.467 66 c 12
 197.081 10.9912 162.977 -38.0811 80.4668 0 c 4
 28.4668 24 14.6172 106.663 48.4668 161 c 20
 86.4668 222 112.019 263.744 143.467 334 c 20
 190.467 439 220.467 552 276.467 631 c 4
EndSplineSet
Fore
SplineSet
296.601 677.07 m 0
 347.393 752.951 403 799 469.227 769.905 c 0
 538.203 739.602 536.592 650.872 492.181 559.677 c 4
 449.871 472.796 400.82 421.309 352.863 327.063 c 28
 292.317 208.076 286.379 139.161 219 12 c 4
 169.239 -81.9121 90.0898 -90.8877 41.4922 -61.0635 c 0
 -1.70117 -34.5566 -19.3086 32.5479 29.7432 116.006 c 0
 73.3838 190.257 117.009 249.555 159 342 c 16
 216.081 467.668 232.224 580.894 296.601 677.07 c 0
EndSplineSet
Validated: 524321
EndChar

StartChar: zero
Encoding: 48 48 37
Width: 662
Flags: HMW
LayerCount: 2
Back
SplineSet
30 361 m 4
 30 593 141 724 334 724 c 4
 529 724 632 592 632 389 c 4
 632 186 553 -13 316 -13 c 4
 92 -13 30 196 30 361 c 4
324 541 m 12
 240.451 541 211 442.549 211 359 c 20
 211 273 242.632 174 328 174 c 20
 409 174 442 282 442 355 c 4
 442 439 409 541 324 541 c 12
EndSplineSet
Fore
SplineSet
30 361 m 0
 30 593 145 724 326 724 c 0
 521 724 632 592 632 364 c 0
 632 187 553 -13 316 -13 c 0
 92 -13 30 196 30 361 c 0
324.125 531.825 m 12
 244.754 531.825 216.775 438.297 216.775 358.925 c 20
 216.775 277.225 246.825 183.175 327.925 183.175 c 20
 404.875 183.175 436.225 285.775 436.225 355.125 c 4
 436.225 434.925 404.875 531.825 324.125 531.825 c 12
EndSplineSet
Validated: 524289
EndChar

StartChar: one
Encoding: 49 49 38
Width: 491
Flags: HMW
LayerCount: 2
Back
SplineSet
333 729 m 12
 386.225 729 418.282 682.667 429 632 c 0
 440 580 441 449.704 441 333 c 16
 441 235 442 139 426 83 c 8
 411.075 30.7627 382 -15 327 -15 c 8
 266.626 -15 233 53 233 108 c 0
 233 185 242 235 242 307 c 8
 242 346.667 241 395 191 395 c 8
 164.297 395 150 387 123 387 c 8
 69.167 387 30 446 30 489 c 0
 30 537.289 92.5225 597.859 164 649 c 0
 222.781 691.058 286.971 729 333 729 c 12
EndSplineSet
Fore
SplineSet
344 729 m 8
 394.3 729 420 688 429 632 c 0
 437.434 579.523 441 449.704 441 333 c 16
 441 235 442 139 426 83 c 8
 411.075 30.7627 382 -15 327 -15 c 8
 266.626 -15 233 53 233 108 c 0
 233 185 255 252 255 324 c 8
 255 363.667 254 412 204 412 c 8
 170.939 412 155 387 123 387 c 8
 73.0664 387 30 417 30 475 c 0
 30 540 92.5225 597.859 164 649 c 0
 222.781 691.058 283 729 344 729 c 8
EndSplineSet
Validated: 524321
EndChar

StartChar: two
Encoding: 50 50 39
Width: 646
Flags: HMW
LayerCount: 2
Back
SplineSet
307 723 m 8
 446.934 723 595 660 595 509 c 8
 595 423.33 542 361 472 327 c 8
 418.813 301.167 383 286 337 258 c 8
 317.802 246.314 301 236 301 213 c 8
 301 193.453 316 189 345 189 c 0
 391 189 439 208 493 208 c 8
 557.615 208 616 184 616 97 c 0
 616 44 585 -10 527 -10 c 8
 455.711 -10 416.289 7.12598 345 7 c 24
 280.349 6.88574 251 -9 180 -9 c 0
 74 -9 30 30 30 118 c 0
 30 244 134 340 288 414 c 8
 334.135 436.169 388 458 388 499 c 0
 388 526 351 541 321 541 c 8
 237.259 541 185 474 117 474 c 0
 67 474 34 500 34 558 c 0
 34 670 182 723 307 723 c 8
EndSplineSet
Fore
SplineSet
307 723 m 8
 446.934 723 595 660 595 509 c 8
 595 423.33 542 361 472 327 c 8
 418.813 301.167 383 286 337 258 c 8
 317.802 246.314 301 236 301 213 c 8
 301 193.453 316 189 345 189 c 0
 391 189 439 208 493 208 c 8
 557.615 208 616 184 616 97 c 0
 616 44 585 -10 527 -10 c 8
 455.711 -10 416.289 7.12598 345 7 c 24
 280.349 6.88574 251 -9 180 -9 c 0
 74 -9 30 30 30 118 c 0
 30 244 134 340 288 414 c 8
 334.135 436.169 388 458 388 499 c 0
 388 526 351 541 321 541 c 8
 237.259 541 185 474 117 474 c 0
 67 474 34 500 34 558 c 0
 34 670 182 723 307 723 c 8
EndSplineSet
Validated: 524321
EndChar

StartChar: three
Encoding: 51 51 40
Width: 681
Flags: HMW
LayerCount: 2
Back
SplineSet
324 720 m 4
 491 720 618 644 618 512 c 4
 618 478 605 448 583 425 c 12
 569.083 410.451 556 401.133 556 381 c 20
 556 362 566.493 347.206 583 334 c 20
 628 298 651 250.813 651 188 c 20
 651 120 599.979 37.9531 502 4 c 4
 459.423 -10.7549 407.979 -15 348 -15 c 4
 283.86 -15 235.642 -11.4619 192 0 c 4
 93 26 30 87 30 147 c 4
 30 207 69.6943 242 121 242 c 20
 214 242 234 167 370 167 c 4
 410 167 463 184.624 463 228 c 20
 463 296 355 292.786 355 359 c 20
 355 415 417 419.755 417 469 c 20
 417 497 381.479 523 347 523 c 20
 250 523 225 469 156 469 c 12
 102.758 469 62 514.758 62 568 c 20
 62 666 209 720 324 720 c 4
EndSplineSet
Fore
SplineSet
324 720 m 0
 491 720 618 644 618 512 c 0
 618 478 605 448 583 425 c 8
 569.083 410.451 556 401.133 556 381 c 16
 556 362 566.493 347.206 583 334 c 16
 628 298 651 250.813 651 188 c 16
 651 120 599.979 37.9531 502 4 c 0
 459.423 -10.7549 407.979 -15 348 -15 c 0
 283.86 -15 235.642 -11.4619 192 0 c 0
 93 26 30 87 30 147 c 0
 30 207 69.6943 242 121 242 c 16
 214 242 234.45 175.9 363.65 175.9 c 0
 401.65 175.9 452 192.643 452 233.85 c 16
 452 298.45 349.4 295.396 349.4 358.3 c 16
 349.4 411.5 408.301 416.017 408.301 462.8 c 16
 408.301 489.4 374.556 514.1 341.801 514.1 c 16
 249.65 514.1 225 469 156 469 c 8
 102.758 469 62 514.758 62 568 c 16
 62 666 209 720 324 720 c 0
EndSplineSet
Validated: 524289
EndChar

StartChar: colon
Encoding: 58 58 41
Width: 308
Flags: HMW
LayerCount: 2
Fore
SplineSet
151.101 510.4 m 16
 218.2 510.4 268.8 462 268.8 402.601 c 0
 268.8 325.601 221.5 286 161 286 c 0
 90.6006 286 41.1006 334.4 41.1006 407 c 8
 41.1006 465.878 92.2227 510.4 151.101 510.4 c 16
150 210.4 m 16
 217.1 210.4 267.699 162 267.699 102.601 c 0
 267.699 25.6006 220.399 -14 159.899 -14 c 0
 89.5 -14 40 34.4004 40 107 c 8
 40 165.878 91.1221 210.4 150 210.4 c 16
EndSplineSet
Validated: 524289
EndChar

StartChar: semicolon
Encoding: 59 59 42
Width: 314
Flags: HMW
LayerCount: 2
Back
SplineSet
151.101 510.4 m 16
 218.2 510.4 268.8 462 268.8 402.601 c 0
 268.8 325.601 221.5 286 161 286 c 0
 90.6006 286 41.1006 334.4 41.1006 407 c 8
 41.1006 465.878 92.2227 510.4 151.101 510.4 c 16
150 210.4 m 16
 217.1 210.4 267.699 162 267.699 102.601 c 0
 267.699 25.6006 220.399 -14 159.899 -14 c 0
 89.5 -14 40 34.4004 40 107 c 8
 40 165.878 91.1221 210.4 150 210.4 c 16
EndSplineSet
Fore
SplineSet
152 215 m 8
 224.423 215 274 153 274 75 c 8
 274 -29.8184 209 -150 127 -150 c 8
 100.792 -150 73 -136.208 73 -110 c 16
 73 -64 97 -52 97 -14 c 4
 97 -1.25643 90.879 6.53488 79.666 15.666 c 4
 56.3333 34.6667 40 61.6775 40 92 c 0
 40 156 88 215 152 215 c 8
151.101 510.4 m 16
 218.2 510.4 268.8 462 268.8 402.601 c 0
 268.8 325.601 221.5 286 161 286 c 0
 90.6006 286 41.1006 334.4 41.1006 407 c 8
 41.1006 465.878 92.2227 510.4 151.101 510.4 c 16
EndSplineSet
Validated: 524289
EndChar

StartChar: less
Encoding: 60 60 43
Width: 502
Flags: HMW
LayerCount: 2
Fore
SplineSet
332.422 20.4004 m 20
 261.622 20.4004 232.822 42.4004 193.222 98.5 c 4
 149.491 160.453 116.561 211.971 69.6221 258 c 4
 18.0215 308.601 16.8223 373.5 66.0215 419.7 c 4
 107.529 458.678 162.353 494.404 206.422 555 c 20
 244.822 607.801 283.501 647.4 352.822 647.4 c 20
 435.622 647.4 472.822 596.48 472.822 535.2 c 20
 472.822 474.7 413.118 433.369 346.822 399.9 c 20
 303.771 378.167 280.693 368 280.693 343.801 c 4
 280.693 322.351 304.479 309.219 354.021 284.4 c 4
 417.596 252.552 457.222 210.5 457.222 144.7 c 20
 457.222 79.8008 404.294 20.4004 332.422 20.4004 c 20
EndSplineSet
Validated: 524321
EndChar

StartChar: equal
Encoding: 61 61 44
Width: 572
Flags: HMW
LayerCount: 2
Fore
SplineSet
136.2 299.011 m 12
 196.798 299.011 230.402 286.94 291 286.95 c 28
 346.394 286.959 376.7 298.02 432.5 298.02 c 4
 491.894 298.02 542.1 269.311 542.1 205.95 c 12
 542.1 149.148 496.2 107.939 422.399 107.939 c 12
 373.137 107.939 345.659 116.443 296.399 115.95 c 28
 235.771 115.344 202.232 102.989 141.6 102.989 c 20
 59.7002 102.989 30 150.511 30 201 c 12
 30 254.391 67.5 299.011 136.2 299.011 c 12
136.2 569.011 m 12
 196.798 569.011 230.402 556.94 291 556.95 c 28
 346.394 556.959 376.7 568.02 432.5 568.02 c 4
 491.894 568.02 542.1 539.311 542.1 475.95 c 12
 542.1 419.148 496.2 377.939 422.399 377.939 c 12
 373.137 377.939 345.659 386.443 296.399 385.95 c 28
 235.771 385.344 202.232 372.989 141.6 372.989 c 20
 59.7002 372.989 30 420.511 30 471 c 12
 30 524.391 67.5 569.011 136.2 569.011 c 12
EndSplineSet
Validated: 524321
EndChar

StartChar: greater
Encoding: 62 62 45
Width: 502
Flags: HMW
LayerCount: 2
Back
SplineSet
147 585 m 20
 200 585 239.234 559.413 266 512 c 20
 301 450 326.885 410.845 366 369 c 4
 409 323 410 264 369 222 c 4
 334.41 186.566 288.725 154.087 252 99 c 20
 220 51 187.768 15 130 15 c 20
 61 15 30 61.291 30 117 c 20
 30 172 79.7529 209.574 135 240 c 20
 170.876 259.758 190.107 269 190.107 291 c 4
 190.107 310.5 170.285 322.438 129 345 c 4
 76.0215 373.953 43 412.183 43 472 c 20
 43 531 87.1064 585 147 585 c 20
EndSplineSet
Fore
SplineSet
170.4 647.4 m 20
 241.2 647.4 270 625.4 309.601 569.301 c 4
 353.331 507.348 386.262 455.83 433.2 409.801 c 4
 484.801 359.2 486 294.301 436.801 248.101 c 4
 395.293 209.123 340.47 173.396 296.4 112.801 c 20
 258 60 219.321 20.4004 150 20.4004 c 20
 67.2002 20.4004 30 71.3203 30 132.601 c 20
 30 193.101 89.7041 234.432 156 267.9 c 20
 199.052 289.634 222.129 299.801 222.129 324 c 4
 222.129 345.45 198.343 358.582 148.801 383.4 c 4
 85.2266 415.249 45.6006 457.301 45.6006 523.101 c 20
 45.6006 588 98.5283 647.4 170.4 647.4 c 20
EndSplineSet
Validated: 524321
EndChar

StartChar: question
Encoding: 63 63 46
Width: 582
Flags: HMW
LayerCount: 2
Back
SplineSet
50 576 m 16
 50 659 161.63 728 264 728 c 16
 398 728 513 657 513 557 c 0
 513 514 502.818 474.806 466 445 c 16
 445 428 404 394 394 354 c 0
 377.447 287.788 345.284 234 281 234 c 16
 218 234 176 266.313 176 319 c 16
 176 363 193.173 395.121 230 421 c 16
 267 447 330 483 330 523 c 0
 330 541 314.394 553 297 553 c 16
 260 553 204.353 488 137 488 c 20
 88 488 50 527.739 50 576 c 16
273.625 200 m 24
 331.251 201.112 377.368 153.623 378.625 96 c 24
 379.864 39.1621 336.461 -9.62598 279.625 -11 c 24
 221.728 -12.3994 174.88 35.0996 173.625 93 c 24
 172.388 150.104 216.519 198.898 273.625 200 c 24
EndSplineSet
Fore
SplineSet
30 576 m 16
 30 659 148.725 728 301.725 728 c 4
 439.725 728 562.449 676 562.449 543 c 0
 562.449 500 539.657 450.309 488.725 426 c 0
 444.725 405 420.725 383 407.725 335 c 0
 393.646 283.021 354.542 234 295.725 234 c 16
 232.725 234 190.725 266.313 190.725 319 c 16
 190.725 363 209.725 399 253.725 426 c 0
 302.909 456.182 352 483 352 523 c 0
 352 541 332.916 553 314.05 553 c 16
 271.5 553 206.156 488 130.05 488 c 16
 73.6992 488 30 524.035 30 576 c 16
288.35 200 m 24
 345.976 201.112 392.093 153.623 393.35 96 c 24
 394.589 39.1621 351.186 -9.62598 294.35 -11 c 24
 236.452 -12.3994 189.604 35.0996 188.35 93 c 24
 187.112 150.104 231.243 198.898 288.35 200 c 24
EndSplineSet
Validated: 524321
EndChar

StartChar: bracketleft
Encoding: 91 91 47
Width: 466
Flags: HMW
LayerCount: 2
Fore
SplineSet
435.899 12 m 4
 435.899 -49 390.899 -85 333.3 -85 c 4
 290.999 -85 273.699 -74 235.2 -74 c 20
 202.8 -74 184.201 -79 151.5 -79 c 20
 75.2998 -79 39 -32 39 51 c 12
 39 156.788 50.7002 216 50.7002 322 c 4
 50.7002 474 30 514 30 615 c 4
 30 685 64.2998 718 119.1 718 c 12
 161.787 718 185.32 707.812 228 707 c 28
 271.602 706.171 295.99 714 339.6 714 c 20
 411.556 714 456.6 683 456.6 622 c 4
 456.6 557 405.3 532 324.3 524 c 4
 254.093 517.066 218.1 486 218.1 416 c 4
 218.1 374 225.3 341.052 225.3 293 c 20
 225.3 233 207.3 202.532 207.3 144 c 20
 207.3 118 225.3 102 253.2 102 c 4
 278.399 102 301.098 114 332.3 114 c 20
 393.5 114 435.899 78 435.899 12 c 4
EndSplineSet
Validated: 524321
EndChar

StartChar: backslash
Encoding: 92 92 48
Width: 514
Flags: HMW
LayerCount: 2
Fore
SplineSet
227.172 677.07 m 0
 291.549 580.894 307.692 467.668 364.773 342 c 8
 406.765 249.555 450.39 190.257 494.03 116.006 c 0
 543.082 32.5479 525.475 -34.5566 482.281 -61.0635 c 0
 433.684 -90.8877 354.534 -81.9121 304.773 12 c 4
 237.395 139.161 231.456 208.076 170.91 327.063 c 28
 122.953 421.31 73.9023 472.796 31.5928 559.677 c 4
 -12.8184 650.872 -14.4297 739.603 54.5459 769.905 c 0
 120.773 799 176.38 752.951 227.172 677.07 c 0
EndSplineSet
Validated: 524321
EndChar

StartChar: bracketright
Encoding: 93 93 49
Width: 466
Flags: HMW
LayerCount: 2
Back
SplineSet
74.4004 621 m 0
 74.4004 682 105 721 162.6 721 c 0
 204.9 721 230.951 707 275.1 707 c 16
 307.5 707 326.11 712 358.8 712 c 16
 418.2 712 471.3 656 471.3 582 c 8
 471.3 476.188 459.6 417 459.6 311 c 0
 459.6 159 480.3 119 480.3 18 c 0
 480.3 -48 438 -85 391.2 -85 c 8
 348.554 -85 324.94 -74.8115 282.3 -74 c 24
 238.713 -73.1699 214.293 -81 170.7 -81 c 16
 144.922 -81 119.484 -79.2148 99.5996 -69 c 0
 71.5811 -54.6064 53.7002 -27.4902 53.7002 0 c 0
 53.7002 101 122.022 102.62 186 109 c 16
 256.2 116 292.2 147 292.2 217 c 0
 292.2 259 285 291.929 285 340 c 16
 285 400 303 430.369 303 489 c 16
 303 515 285 531 257.1 531 c 0
 231.9 531 203.146 516 168 516 c 16
 106.8 516 74.4004 555 74.4004 621 c 0
EndSplineSet
Fore
SplineSet
30.7002 621 m 4
 30.7002 682 75.7002 718 133.3 718 c 4
 175.601 718 192.9 707 231.399 707 c 20
 263.8 707 282.398 712 315.1 712 c 20
 391.3 712 427.6 665 427.6 582 c 12
 427.6 476.212 415.899 417 415.899 311 c 4
 415.899 159 436.6 119 436.6 18 c 4
 436.6 -52 402.3 -85 347.5 -85 c 12
 304.812 -85 281.279 -74.8115 238.6 -74 c 28
 194.998 -73.1709 170.609 -81 127 -81 c 20
 55.0439 -81 10 -50 10 11 c 4
 10 76 61.2998 101 142.3 109 c 4
 212.507 115.934 248.5 147 248.5 217 c 4
 248.5 259 241.3 291.948 241.3 340 c 20
 241.3 400 259.3 430.468 259.3 489 c 20
 259.3 515 241.3 531 213.399 531 c 4
 188.2 531 165.502 519 134.3 519 c 20
 73.0996 519 30.7002 555 30.7002 621 c 4
EndSplineSet
Validated: 524321
EndChar

StartChar: afii57664
Encoding: 1488 1488 50
Width: 680
Flags: HMW
LayerCount: 2
Fore
SplineSet
142 610 m 8
 223.196 610 253.029 550.415 303 478 c 0
 362 392.5 389 364 420 364 c 0
 447 364 462 391 462 418 c 0
 462 443 453.952 458.18 445 480 c 0
 437 499.5 433 519.5 433 539 c 0
 433 578.5 465.5 618 515.5 618 c 0
 548 618 580.294 603.4 615 572 c 0
 636 553 650 523.5 650 491 c 0
 650 458 630 409.5 612 374 c 8
 588.568 327.788 573 290.5 573 247 c 0
 573 211 582.5 185 598 151 c 8
 612.444 119.315 622 97.5 622 65 c 8
 622 20.8213 596.5 -11 538 -11 c 0
 486.5 -11 449 39.5 424 82 c 8
 382.197 153.063 307.5 219 263 219 c 8
 240.876 219 226 202.5 226 176 c 0
 226 154 236.5 136 245 120 c 8
 258.655 94.2959 268 77 268 49 c 0
 268 6.5 227 -20 161 -20 c 0
 71.5 -20 30 34.5 30 111 c 8
 30 158.729 47.127 184.579 69 227 c 16
 85.5 259 95 304 95 356 c 0
 95 395.5 84.5 416.5 69 450.5 c 8
 57.8955 474.857 52 490.23 52 517 c 16
 52 569 89 610 142 610 c 8
EndSplineSet
Validated: 524289
EndChar

StartChar: afii57665
Encoding: 1489 1489 51
Width: 678
Flags: HMW
LayerCount: 2
Back
SplineSet
331 622 m 4
 423 622 499 594 552 539 c 4
 611.824 476.919 615 394 600 307.5 c 4
 591.481 258.371 597.885 231.953 620.5 209 c 4
 654 175 671 143 671 95 c 12
 671 34.4648 626 -7 554 -7 c 12
 493.229 -7 459.771 9 399 9 c 20
 309 9 225 -17 141 -17 c 12
 81.4102 -17 30 15 30 88 c 12
 30 167.504 117 202 199 202 c 12
 255.172 202 292 199 343 199 c 12
 397.896 199 445 237 445 296 c 12
 445 363.562 390 407 312 407 c 12
 252.488 407 246 385 161 385 c 12
 104.822 385 51 411 51 478 c 4
 51 566 177 622 331 622 c 4
EndSplineSet
Fore
SplineSet
315.949 622 m 0
 403.35 622 475.55 594 525.899 539 c 0
 575.181 485.168 581.141 417.547 576.898 342.5 c 0
 573.237 277.717 579.1 237 613.3 194 c 0
 640.049 160.367 648.449 134.227 648.449 95 c 8
 648.449 36.165 605.699 -7 537.3 -7 c 8
 475.85 -7 442 9 380.55 9 c 16
 295.05 9 215.25 -17 135.449 -17 c 8
 77.4131 -17 30 15 30 88 c 8
 30 164.794 112.649 202 190.55 202 c 8
 242.395 202 275 199 323.45 199 c 8
 376.923 199 420.351 237 420.351 296 c 8
 420.351 361.592 368.101 407 294 407 c 8
 238.903 407 235.199 385 154.449 385 c 8
 99.8916 385 49.9492 411 49.9492 478 c 0
 49.9492 566 169.649 622 315.949 622 c 0
EndSplineSet
Validated: 524321
EndChar

StartChar: afii57666
Encoding: 1490 1490 52
Width: 572
Flags: HMW
LayerCount: 2
Back
SplineSet
235 622 m 0
 147 622 45 577 45 504 c 8
 45 456.777 76 414 126 414 c 0
 178 414 163 426 215 426 c 12
 263.324 426 307 400 307 343 c 8
 307 290.091 284 249 229 232 c 8
 176.623 215.811 140 212 96 186.5 c 8
 55.4297 162.987 30 132.5 30 86 c 8
 30 29.71 58 -19.5 128.5 -19.5 c 0
 200.5 -19.5 249.5 18.5 292 46 c 8
 303.879 53.6865 320.474 53.4814 328 41.5 c 16
 352.5 2.5 390.5 -20.5 440.5 -20.5 c 8
 496.525 -20.5 546 20 546 77 c 8
 546 106.322 536.229 121.855 528 150 c 16
 503 235.5 494 310.5 488 388.5 c 8
 482.461 460.51 483.258 512.448 426 563 c 0
 370.5 612 303.528 622 235 622 c 0
EndSplineSet
Fore
SplineSet
235 622 m 0
 303.528 622 370.5 612 426 563 c 0
 483.258 512.448 487 454 488 388.5 c 0
 489.194 310.279 499 250 519 185 c 8
 534.104 135.914 548 109 540 55 c 0
 532.819 6.5293 489.212 -20.5 440.5 -20.5 c 16
 390.5 -20.5 350 22 337 86.5 c 0
 332.639 108.139 312.264 112.866 301 91 c 0
 267 25 200.5 -19.5 128.5 -19.5 c 0
 58 -19.5 30 29.71 30 86 c 16
 30 132.5 55.4297 162.987 96 186.5 c 16
 140 212 185.322 217.173 243 235 c 16
 298 252 321 293.091 321 346 c 16
 321 395 284 429 238 429 c 0
 189 429 172 414 126 414 c 0
 76 414 45 456.777 45 504 c 16
 45 577 147 622 235 622 c 0
EndSplineSet
Validated: 524321
EndChar

StartChar: afii57667
Encoding: 1491 1491 53
Width: 674
Flags: HMW
LayerCount: 2
Back
SplineSet
30.0195 512 m 24
 31.3389 577.442 84.0195 624 155.02 624 c 0
 223.02 624 265.02 600 340.02 600 c 8
 418.959 600 461 624 541 624 c 0
 607 624 645.02 581 645.02 531 c 8
 645.02 483.731 620.254 460.285 578.02 430 c 0
 532 397 527.02 357 527.02 296 c 8
 527.02 226.059 538.02 199 538.02 117 c 8
 538.02 52.376 501.02 -12 434.02 -12 c 0
 353.02 -12 324.02 64 324.02 125 c 0
 324.02 224 372.02 274 372.02 363 c 8
 372.02 404.976 341.02 435 292.02 435 c 8
 230.019 435 219.02 410 135.02 410 c 0
 80.0195 410 28.8682 454.921 30.0195 512 c 24
EndSplineSet
Fore
SplineSet
30.0195 512 m 28
 31.3389 577.443 84.0195 624 155.02 624 c 4
 223.02 624 265.02 600 340.02 600 c 12
 418.959 600 461 624 541 624 c 4
 607 624 645.02 581 645.02 531 c 12
 645.02 483.731 620.254 460.285 578.02 430 c 4
 532 397 527.02 357 527.02 296 c 12
 527.02 226.059 538.02 199 538.02 117 c 12
 538.02 52.376 501.02 -12 434.02 -12 c 4
 353.02 -12 324.02 64 324.02 125 c 4
 324.02 224 364 272.5 364 354.98 c 12
 364 396.956 333 426.98 284 426.98 c 4
 230 426.98 221.5 410 135.02 410 c 4
 80.0195 410 28.8691 454.921 30.0195 512 c 28
EndSplineSet
Validated: 524321
EndChar

StartChar: afii57668
Encoding: 1492 1492 54
Width: 673
Flags: HMW
LayerCount: 2
Back
SplineSet
155.865 300 m 4
 239.315 300 256.655 226 256.655 152.41 c 12
 256.655 72.7119 232.865 -18 143.865 -18 c 4
 52.8652 -18 46.4453 64.4287 46.4453 135.25 c 20
 46.4453 237 92.8652 300 155.865 300 c 4
130.815 615.73 m 12
 206.354 615.73 248.365 600 323.865 600 c 12
 367.924 600 394.365 600 436.835 600 c 12
 507.472 600 564.365 581.5 595.565 512.771 c 12
 643.4 407.396 643.865 326 643.865 220 c 4
 643.865 119 638.377 -22 534.865 -22 c 20
 460.865 -22 432.865 44.249 432.865 109 c 20
 432.865 169 437.865 206.569 437.865 269 c 20
 437.865 360 381.521 415 304.365 415 c 20
 261.365 415 234.581 409 189.865 409 c 20
 103.365 409 30 441.247 30 516.346 c 20
 30 572.5 74.3652 615.73 130.815 615.73 c 12
EndSplineSet
Fore
SplineSet
155.865 300 m 0
 239.315 300 256.655 226 256.655 152.41 c 8
 256.655 72.7119 232.865 -18 143.865 -18 c 0
 52.8652 -18 46.4453 64.4287 46.4453 135.25 c 16
 46.4453 237 92.8652 300 155.865 300 c 0
144 615.73 m 8
 214.415 615.73 248.365 600 323.865 600 c 8
 358.628 600 370.53 600 413 600 c 0
 638 600 643.865 383.664 643.865 220 c 0
 643.865 119 638.377 -22 534.865 -22 c 16
 460.865 -22 432.865 44.249 432.865 109 c 16
 432.865 169 437.865 206.569 437.865 269 c 16
 437.865 360 398 415 304.365 415 c 0
 261.365 415 234.581 409 189.865 409 c 16
 103.365 409 30 441.247 30 516.346 c 16
 30 572.5 72 615.73 144 615.73 c 8
EndSplineSet
Validated: 524289
EndChar

StartChar: afii57669
Encoding: 1493 1493 55
Width: 319
Flags: HMW
LayerCount: 2
Back
SplineSet
156.5 615 m 4
 221 615 260.694 579.856 281 523 c 20
 301 467 303 386.5 303 328 c 4
 303 249 298.5 176 281 99.5 c 12
 267.623 41.0225 237 -11 174 -11 c 4
 92 -11 76 47.5 72 100 c 12
 66.7559 168.832 74.1016 209.387 71 277 c 4
 66 386 30 418 30 487 c 4
 30 548.5 71 615 156.5 615 c 4
EndSplineSet
Fore
SplineSet
150.175 615 m 4
 211.45 615 249.159 579.856 268.45 523 c 20
 287.45 467 289.35 386.5 289.35 328 c 4
 289.35 249 285.075 176 268.45 99.5 c 12
 255.741 41.0225 226.649 -11 166.8 -11 c 4
 88.8994 -11 73.7002 47.5 69.8994 100 c 12
 64.918 168.832 71.8965 209.387 68.9502 277 c 4
 64.2002 386 30 418 30 487 c 4
 30 548.5 68.9502 615 150.175 615 c 4
EndSplineSet
Validated: 524321
EndChar

StartChar: afii57670
Encoding: 1494 1494 56
Width: 543
Flags: HMW
LayerCount: 2
Back
SplineSet
144 618 m 16
 196 618 228 587 282 587 c 8
 326.748 587 348 600 396 600 c 8
 455.024 600 513 568 513 504 c 8
 513 460.042 497 427 461 404 c 8
 418.352 376.752 406 345 399 290 c 8
 391.559 231.535 397 188 393 139 c 0
 386.89 64.1426 366 -16 295 -16 c 8
 213.651 -16 177 29 177 156 c 8
 177 227.49 206 288 206 337 c 0
 206 360 185.367 382.598 160 383 c 16
 97 384 30 426.585 30 493 c 16
 30 550 78.0205 618 144 618 c 16
EndSplineSet
Fore
SplineSet
144 608 m 0
 196 608 228 587 282 587 c 8
 326.748 587 348 600 396 600 c 8
 455.024 600 513 568 513 504 c 8
 513 460.042 492 428 461 404 c 8
 420.981 373.018 406 345 399 290 c 8
 391.559 231.535 397 188 393 139 c 0
 386.89 64.1426 368 -16 290 -16 c 4
 229 -16 177 23 177 122 c 0
 177 233 206 288 206 337 c 0
 206 372 189 383 160 383 c 0
 76 383 30 426.585 30 493 c 16
 30 564 66 608 144 608 c 0
EndSplineSet
Validated: 524289
EndChar

StartChar: afii57671
Encoding: 1495 1495 57
Width: 704
Flags: HMW
LayerCount: 2
Back
SplineSet
205 615 m 0
 274 615 257 600 378 600 c 8
 469.184 600 552.249 600.33 608 558 c 0
 662 517 674 462 679 394 c 8
 687.843 273.738 687 185 668 85 c 8
 656.979 26.999 625 -25 564 -25 c 0
 485 -25 466 20 466 128 c 0
 466 177 485 245 460 318 c 8
 443.156 367.184 409 405 359 405 c 0
 300 405 257 356 257 286 c 8
 257 220.834 289 184 289 122 c 8
 289 53.626 256 -22 189 -22 c 0
 104 -22 64 26 64 99 c 0
 64 207 80 216 80 293 c 0
 80 323.806 73.1797 349.119 61 384.5 c 0
 50.5 415 50 444.543 50 486 c 0
 50 560 89 615 205 615 c 0
EndSplineSet
Fore
SplineSet
172 615 m 0
 241 615 243 600 364 600 c 8
 455.184 600 538.249 600.33 594 558 c 0
 674.681 496.742 674 386.013 674 267 c 0
 674 136 657 -20 550 -20 c 4
 471 -20 452 25 452 133 c 4
 452 182 471 254 446 327 c 8
 429.875 374.084 395 405 345 405 c 0
 286 405 243 369 243 299 c 8
 243 226.163 275 177 275 115 c 4
 275 37 238 -17 175 -17 c 4
 90 -17 50 38 50 118 c 4
 50 195 64 233 64 298 c 0
 64 328.806 59.1797 349.119 47 384.5 c 0
 36.5 415 30 444.543 30 486 c 0
 30 560 81 615 172 615 c 0
EndSplineSet
Validated: 524321
EndChar

StartChar: afii57672
Encoding: 1496 1496 58
Width: 672
Flags: HMW
LayerCount: 2
Back
SplineSet
152 616 m 8
 204.994 616 244 576 244 516 c 8
 244 446.234 212 415 212 340 c 0
 212 258 243 171 351 171 c 12
 430.171 171 472 254 472 334 c 12
 472 367.777 461 408 427 408 c 12
 394.529 408 383 374 351 374 c 8
 316.17 374 301 402 301 448 c 0
 301 538 362 619 449 619 c 0
 571 619 642 476 642 346 c 8
 642 160.941 528 -20 340 -20 c 0
 223.158 -20 133.965 28.042 83 125 c 0
 42 203 30 292.43 30 413 c 0
 30 497 56 616 152 616 c 8
EndSplineSet
Fore
SplineSet
152 616 m 8
 204.994 616 244 576 244 516 c 8
 244 445.668 218.5 408.725 218.5 337.475 c 4
 218.5 259.575 247.95 176.925 350.55 176.925 c 12
 425.763 176.925 465.5 255.775 465.5 331.775 c 12
 465.5 363.863 455.05 402.075 422.75 402.075 c 12
 392.701 402.075 383 374 351 374 c 8
 316.17 374 301 402 301 448 c 0
 301 538 362 619 449 619 c 0
 571 619 642 476 642 346 c 8
 642 160.941 528 -20 340 -20 c 0
 223.158 -20 133.965 28.042 83 125 c 0
 42 203 30 292.43 30 413 c 0
 30 497 56 616 152 616 c 8
EndSplineSet
Validated: 524289
EndChar

StartChar: afii57673
Encoding: 1497 1497 59
Width: 284
Flags: HMW
LayerCount: 2
Back
SplineSet
154.5 611.5 m 0
 194 611.5 225.241 598.506 249 565 c 16
 268.5 537.5 274 502 274 460 c 0
 274 409.5 272.5 365.5 259 319 c 0
 245.634 272.961 204.323 244 154 244 c 16
 123 244 88.5127 264.868 73 300 c 16
 56 338.5 50 385.283 50 441 c 16
 50 478.5 52 512.5 60 543 c 0
 70.9834 584.876 96.5 611.5 154.5 611.5 c 0
EndSplineSet
Fore
SplineSet
134.5 611.5 m 0
 174 611.5 204.704 601.692 229 569.5 c 16
 249 543 254 502 254 460 c 0
 254 409.5 252.5 365.5 239 319 c 0
 225.634 272.961 195 244 143.5 244 c 0
 106.5 244 69.7656 262.031 53 300 c 16
 36 338.5 30 385.283 30 441 c 16
 30 478.5 32 512.5 40 543 c 0
 50.9834 584.876 76.5 611.5 134.5 611.5 c 0
EndSplineSet
Validated: 524289
EndChar

StartChar: afii57674
Encoding: 1498 1498 60
Width: 677
Flags: HMW
LayerCount: 2
Back
SplineSet
50 461 m 4
 50 509 74.9805 539.285 116 563 c 20
 180 600 248 616 339 616 c 0
 432 616 511.854 597.112 585 531 c 0
 637 484 663 407 663 320 c 8
 663 266.129 656.718 235.87 657 182 c 24
 657.72 44.5225 676 -32.5205 676 -170 c 16
 676 -253 637 -303 556 -303 c 0
 460 -303 432 -239 432 -156 c 0
 432 12 490 76.542 490 228 c 16
 490 345 445.398 387 367 387 c 16
 293 387 242 334 167 334 c 8
 99.6553 334 50 381 50 461 c 4
EndSplineSet
Fore
SplineSet
30 457 m 0
 30 505 53.8398 538.626 96 563 c 16
 160 600 228 616 319 616 c 0
 412 616 491.854 597.112 565 531 c 0
 617 484 643 407 643 320 c 8
 643 239.176 634 197 633 113 c 0
 631.488 -13.9912 647 -56 647 -168 c 0
 647 -263 600 -303 536 -303 c 0
 417.839 -303 416 -189 428.127 -97 c 4
 442.082 8.86328 470 73.0898 470 228 c 0
 470 345 430.741 404 347 404 c 16
 273 404 222 351 147 351 c 8
 85.4277 351 30 389 30 457 c 0
EndSplineSet
Validated: 524321
EndChar

StartChar: .notdef
Encoding: 65538 -1 61
Width: 640
Flags: HMW
LayerCount: 2
Fore
SplineSet
140 -350 m 25
 50 -350 l 25
 50 850 l 25
 140 850 l 29
 140 -350 l 25
EndSplineSet
Validated: 2097153
EndChar
